M48
INCH,TZ
T1C0.024
T2C0.030
T3C0.031
T4C0.032
T5C0.039
T6C0.039
T7C0.047
T8C0.049
%
G90
G05
T1
X41500Y-32750
X41500Y-33750
X42000Y-33250
X43750Y-31750
X43750Y-32750
X44250Y-32250
X52000Y-31750
X52000Y-32750
X52500Y-32250
X54000Y-30000
X54500Y-29500
X54500Y-30500
X57700Y-31800
X57700Y-32800
X58200Y-32300
T2
X40000Y-32766
X40000Y-33750
X43750Y-29500
X43750Y-30484
X46000Y-30516
X46000Y-31500
X48750Y-29500
X49500Y-31750
X49500Y-32734
X49734Y-29500
X51000Y-34266
X51000Y-35250
X51750Y-30000
X52734Y-30000
X54500Y-32016
X54500Y-33000
X56000Y-30766
X56000Y-31750
X56000Y-34016
X56000Y-35000
X57500Y-30500
X58484Y-30500
X63600Y-33016
X63600Y-34000
T3
X38250Y-29500
X40000Y-29500
X44250Y-35250
X47750Y-34250
X49500Y-34250
X54500Y-34000
X59500Y-29500
X66900Y-29427
X66900Y-30214
X66900Y-31002
X66900Y-34200
T4
X38250Y-30484
X40000Y-30484
X43266Y-35250
X47750Y-35234
X49500Y-35234
X53516Y-34000
X59500Y-30484
X60900Y-32800
X60900Y-34300
X66900Y-35184
T5
X37000Y-32000
X37000Y-33673
X46000Y-33577
X46000Y-35250
T6
X63600Y-29500
X63600Y-30500
T7
X39000Y-35750
X40000Y-35750
X41000Y-35750
T8
X66900Y-28600
X66900Y-31828
T0
M30
